<svg width="34" height="34" viewBox="0 0 34 34" fill="none" xmlns="http://www.w3.org/2000/svg">
<g id="tabler:arrow-wave-right-down">
<g id="Group">
<path id="Vector" d="M10.723 23.6513L12.4163 28.9117L17.6767 27.2184" stroke="white" stroke-width="2.31329" stroke-linecap="round" stroke-linejoin="round"/>
<path id="Vector_2" d="M7.42703 4.39299C6.11393 6.10302 5.80328 8.51503 6.49013 10.5C7.09018 12.5129 8.74953 14.2908 10.8136 14.9137C12.8777 15.5367 14.537 17.3146 15.1371 19.3275C15.8239 21.3125 15.092 23.6961 14.2002 25.4345L12.4166 28.9113" stroke="white" stroke-width="2.31329" stroke-linecap="round" stroke-linejoin="round"/>
</g>
<g id="Group_2">
<path id="Vector_3" d="M21.7758 23.6513L23.469 28.9117L28.7294 27.2184" stroke="white" stroke-width="2.31329" stroke-linecap="round" stroke-linejoin="round"/>
<path id="Vector_4" d="M18.4798 4.39299C17.1667 6.10302 16.856 8.51503 17.5429 10.5C18.1429 12.5129 19.8023 14.2908 21.8663 14.9137C23.9304 15.5367 25.5898 17.3146 26.1898 19.3275C26.8767 21.3125 26.1447 23.6961 25.2529 25.4345L23.4694 28.9113" stroke="white" stroke-width="2.31329" stroke-linecap="round" stroke-linejoin="round"/>
</g>
</g>
</svg>
